<mxfile host="Electron" modified="2024-09-22T14:46:28.921Z" agent="Mozilla/5.0 (Windows NT 10.0; Win64; x64) AppleWebKit/537.36 (KHTML, like Gecko) draw.io/24.6.1 Chrome/124.0.6367.207 Electron/30.0.6 Safari/537.36" etag="jvVGQDI6QRv8yP_Xke18" version="24.6.1" type="device">
  <diagram name="Page-1" id="Ljv1Ssu8JWHtcRd5WKRK">
    <mxGraphModel dx="838" dy="973" grid="1" gridSize="10" guides="1" tooltips="1" connect="1" arrows="1" fold="1" page="1" pageScale="1" pageWidth="850" pageHeight="1100" math="0" shadow="0">
      <root>
        <mxCell id="0" />
        <mxCell id="1" parent="0" />
        <mxCell id="SCm-jX3doUQlHFpAc7n2-1" value="Cloud/ Computer" style="ellipse;shape=cloud;whiteSpace=wrap;html=1;fillColor=#99FF99;" vertex="1" parent="1">
          <mxGeometry x="360" y="330" width="80" height="60" as="geometry" />
        </mxCell>
        <mxCell id="SCm-jX3doUQlHFpAc7n2-47" style="edgeStyle=orthogonalEdgeStyle;rounded=0;orthogonalLoop=1;jettySize=auto;html=1;exitX=0.5;exitY=1;exitDx=0;exitDy=0;entryX=1;entryY=0.25;entryDx=0;entryDy=0;" edge="1" parent="1" source="SCm-jX3doUQlHFpAc7n2-2" target="SCm-jX3doUQlHFpAc7n2-4">
          <mxGeometry relative="1" as="geometry" />
        </mxCell>
        <mxCell id="SCm-jX3doUQlHFpAc7n2-2" value="MicroSD Card &amp;amp; module" style="rounded=0;whiteSpace=wrap;html=1;" vertex="1" parent="1">
          <mxGeometry x="480" y="150" width="80" height="40" as="geometry" />
        </mxCell>
        <mxCell id="SCm-jX3doUQlHFpAc7n2-3" value="ESP 32" style="rounded=0;whiteSpace=wrap;html=1;fillColor=#FFE6CC;" vertex="1" parent="1">
          <mxGeometry x="360" y="510" width="80" height="40" as="geometry" />
        </mxCell>
        <mxCell id="SCm-jX3doUQlHFpAc7n2-43" style="edgeStyle=orthogonalEdgeStyle;rounded=0;orthogonalLoop=1;jettySize=auto;html=1;entryX=0.5;entryY=1;entryDx=0;entryDy=0;" edge="1" parent="1" source="SCm-jX3doUQlHFpAc7n2-4" target="SCm-jX3doUQlHFpAc7n2-20">
          <mxGeometry relative="1" as="geometry" />
        </mxCell>
        <mxCell id="SCm-jX3doUQlHFpAc7n2-44" style="edgeStyle=orthogonalEdgeStyle;rounded=0;orthogonalLoop=1;jettySize=auto;html=1;exitX=0.75;exitY=0;exitDx=0;exitDy=0;entryX=0.5;entryY=1;entryDx=0;entryDy=0;" edge="1" parent="1" source="SCm-jX3doUQlHFpAc7n2-4" target="SCm-jX3doUQlHFpAc7n2-22">
          <mxGeometry relative="1" as="geometry" />
        </mxCell>
        <mxCell id="SCm-jX3doUQlHFpAc7n2-45" style="edgeStyle=orthogonalEdgeStyle;rounded=0;orthogonalLoop=1;jettySize=auto;html=1;exitX=0.25;exitY=0;exitDx=0;exitDy=0;entryX=0.5;entryY=1;entryDx=0;entryDy=0;" edge="1" parent="1" source="SCm-jX3doUQlHFpAc7n2-4" target="SCm-jX3doUQlHFpAc7n2-16">
          <mxGeometry relative="1" as="geometry" />
        </mxCell>
        <mxCell id="SCm-jX3doUQlHFpAc7n2-4" value="ESP 32" style="rounded=0;whiteSpace=wrap;html=1;fillColor=#FFE6CC;" vertex="1" parent="1">
          <mxGeometry x="360" y="200" width="80" height="40" as="geometry" />
        </mxCell>
        <mxCell id="SCm-jX3doUQlHFpAc7n2-5" value="ESP 32" style="rounded=0;whiteSpace=wrap;html=1;fillColor=#FFE6CC;" vertex="1" parent="1">
          <mxGeometry x="480" y="340" width="80" height="40" as="geometry" />
        </mxCell>
        <mxCell id="SCm-jX3doUQlHFpAc7n2-6" value="ESP 32" style="rounded=0;whiteSpace=wrap;html=1;fillColor=#FFE6CC;" vertex="1" parent="1">
          <mxGeometry x="240" y="340" width="80" height="40" as="geometry" />
        </mxCell>
        <mxCell id="SCm-jX3doUQlHFpAc7n2-40" style="edgeStyle=orthogonalEdgeStyle;rounded=0;orthogonalLoop=1;jettySize=auto;html=1;entryX=0.25;entryY=1;entryDx=0;entryDy=0;" edge="1" parent="1" source="SCm-jX3doUQlHFpAc7n2-8" target="SCm-jX3doUQlHFpAc7n2-3">
          <mxGeometry relative="1" as="geometry" />
        </mxCell>
        <mxCell id="SCm-jX3doUQlHFpAc7n2-8" value="MicroSD Card &amp;amp; module" style="rounded=0;whiteSpace=wrap;html=1;" vertex="1" parent="1">
          <mxGeometry x="300" y="590" width="80" height="40" as="geometry" />
        </mxCell>
        <mxCell id="SCm-jX3doUQlHFpAc7n2-29" style="edgeStyle=orthogonalEdgeStyle;rounded=0;orthogonalLoop=1;jettySize=auto;html=1;entryX=1;entryY=0.75;entryDx=0;entryDy=0;" edge="1" parent="1" source="SCm-jX3doUQlHFpAc7n2-9" target="SCm-jX3doUQlHFpAc7n2-5">
          <mxGeometry relative="1" as="geometry" />
        </mxCell>
        <mxCell id="SCm-jX3doUQlHFpAc7n2-25" style="edgeStyle=orthogonalEdgeStyle;rounded=0;orthogonalLoop=1;jettySize=auto;html=1;exitX=1;exitY=0.5;exitDx=0;exitDy=0;entryX=0;entryY=0.75;entryDx=0;entryDy=0;" edge="1" parent="1" source="SCm-jX3doUQlHFpAc7n2-10" target="SCm-jX3doUQlHFpAc7n2-6">
          <mxGeometry relative="1" as="geometry" />
        </mxCell>
        <mxCell id="SCm-jX3doUQlHFpAc7n2-10" value="MicroSD Card &amp;amp; module" style="rounded=0;whiteSpace=wrap;html=1;" vertex="1" parent="1">
          <mxGeometry x="120" y="370" width="80" height="40" as="geometry" />
        </mxCell>
        <mxCell id="SCm-jX3doUQlHFpAc7n2-50" style="edgeStyle=orthogonalEdgeStyle;rounded=0;orthogonalLoop=1;jettySize=auto;html=1;entryX=0;entryY=0.5;entryDx=0;entryDy=0;" edge="1" parent="1" source="SCm-jX3doUQlHFpAc7n2-11" target="SCm-jX3doUQlHFpAc7n2-4">
          <mxGeometry relative="1" as="geometry">
            <Array as="points">
              <mxPoint x="280" y="220" />
            </Array>
          </mxGeometry>
        </mxCell>
        <mxCell id="SCm-jX3doUQlHFpAc7n2-11" value="Accelerometer" style="rounded=0;whiteSpace=wrap;html=1;" vertex="1" parent="1">
          <mxGeometry x="240" y="150" width="80" height="40" as="geometry" />
        </mxCell>
        <mxCell id="SCm-jX3doUQlHFpAc7n2-38" style="edgeStyle=orthogonalEdgeStyle;rounded=0;orthogonalLoop=1;jettySize=auto;html=1;entryX=1;entryY=0.5;entryDx=0;entryDy=0;" edge="1" parent="1" source="SCm-jX3doUQlHFpAc7n2-12" target="SCm-jX3doUQlHFpAc7n2-3">
          <mxGeometry relative="1" as="geometry" />
        </mxCell>
        <mxCell id="SCm-jX3doUQlHFpAc7n2-12" value="Accelerometer" style="rounded=0;whiteSpace=wrap;html=1;" vertex="1" parent="1">
          <mxGeometry x="470" y="520" width="80" height="40" as="geometry" />
        </mxCell>
        <mxCell id="SCm-jX3doUQlHFpAc7n2-28" style="edgeStyle=orthogonalEdgeStyle;rounded=0;orthogonalLoop=1;jettySize=auto;html=1;entryX=1;entryY=0.25;entryDx=0;entryDy=0;" edge="1" parent="1" source="SCm-jX3doUQlHFpAc7n2-13" target="SCm-jX3doUQlHFpAc7n2-5">
          <mxGeometry relative="1" as="geometry" />
        </mxCell>
        <mxCell id="SCm-jX3doUQlHFpAc7n2-13" value="Accelerometer" style="rounded=0;whiteSpace=wrap;html=1;" vertex="1" parent="1">
          <mxGeometry x="600" y="310" width="80" height="40" as="geometry" />
        </mxCell>
        <mxCell id="SCm-jX3doUQlHFpAc7n2-24" style="edgeStyle=orthogonalEdgeStyle;rounded=0;orthogonalLoop=1;jettySize=auto;html=1;exitX=1;exitY=0.5;exitDx=0;exitDy=0;entryX=0;entryY=0.25;entryDx=0;entryDy=0;" edge="1" parent="1" source="SCm-jX3doUQlHFpAc7n2-14" target="SCm-jX3doUQlHFpAc7n2-6">
          <mxGeometry relative="1" as="geometry" />
        </mxCell>
        <mxCell id="SCm-jX3doUQlHFpAc7n2-14" value="Accelerometer" style="rounded=0;whiteSpace=wrap;html=1;" vertex="1" parent="1">
          <mxGeometry x="120" y="310" width="80" height="40" as="geometry" />
        </mxCell>
        <mxCell id="SCm-jX3doUQlHFpAc7n2-31" style="edgeStyle=orthogonalEdgeStyle;rounded=0;orthogonalLoop=1;jettySize=auto;html=1;entryX=0.5;entryY=1;entryDx=0;entryDy=0;" edge="1" parent="1" source="SCm-jX3doUQlHFpAc7n2-15" target="SCm-jX3doUQlHFpAc7n2-5">
          <mxGeometry relative="1" as="geometry">
            <Array as="points">
              <mxPoint x="520" y="440" />
            </Array>
          </mxGeometry>
        </mxCell>
        <mxCell id="SCm-jX3doUQlHFpAc7n2-16" value="Speaker" style="rounded=0;whiteSpace=wrap;html=1;" vertex="1" parent="1">
          <mxGeometry x="300" y="100" width="80" height="40" as="geometry" />
        </mxCell>
        <mxCell id="SCm-jX3doUQlHFpAc7n2-39" style="edgeStyle=orthogonalEdgeStyle;rounded=0;orthogonalLoop=1;jettySize=auto;html=1;entryX=0;entryY=0.5;entryDx=0;entryDy=0;" edge="1" parent="1" source="SCm-jX3doUQlHFpAc7n2-17" target="SCm-jX3doUQlHFpAc7n2-3">
          <mxGeometry relative="1" as="geometry" />
        </mxCell>
        <mxCell id="SCm-jX3doUQlHFpAc7n2-17" value="Lithium Battery" style="rounded=0;whiteSpace=wrap;html=1;" vertex="1" parent="1">
          <mxGeometry x="250" y="520" width="80" height="40" as="geometry" />
        </mxCell>
        <mxCell id="SCm-jX3doUQlHFpAc7n2-30" style="edgeStyle=orthogonalEdgeStyle;rounded=0;orthogonalLoop=1;jettySize=auto;html=1;entryX=0.5;entryY=0;entryDx=0;entryDy=0;" edge="1" parent="1" source="SCm-jX3doUQlHFpAc7n2-18" target="SCm-jX3doUQlHFpAc7n2-5">
          <mxGeometry relative="1" as="geometry">
            <Array as="points">
              <mxPoint x="520" y="280" />
            </Array>
          </mxGeometry>
        </mxCell>
        <mxCell id="SCm-jX3doUQlHFpAc7n2-18" value="Lithium Battery" style="rounded=0;whiteSpace=wrap;html=1;" vertex="1" parent="1">
          <mxGeometry x="560" y="260" width="80" height="40" as="geometry" />
        </mxCell>
        <mxCell id="SCm-jX3doUQlHFpAc7n2-27" style="edgeStyle=orthogonalEdgeStyle;rounded=0;orthogonalLoop=1;jettySize=auto;html=1;exitX=1;exitY=0.5;exitDx=0;exitDy=0;entryX=0.5;entryY=0;entryDx=0;entryDy=0;" edge="1" parent="1" source="SCm-jX3doUQlHFpAc7n2-19" target="SCm-jX3doUQlHFpAc7n2-6">
          <mxGeometry relative="1" as="geometry" />
        </mxCell>
        <mxCell id="SCm-jX3doUQlHFpAc7n2-19" value="Lithium Battery" style="rounded=0;whiteSpace=wrap;html=1;" vertex="1" parent="1">
          <mxGeometry x="160" y="260" width="80" height="40" as="geometry" />
        </mxCell>
        <mxCell id="SCm-jX3doUQlHFpAc7n2-20" value="Vibration motor" style="rounded=0;whiteSpace=wrap;html=1;" vertex="1" parent="1">
          <mxGeometry x="360" y="50" width="80" height="40" as="geometry" />
        </mxCell>
        <mxCell id="SCm-jX3doUQlHFpAc7n2-41" style="edgeStyle=orthogonalEdgeStyle;rounded=0;orthogonalLoop=1;jettySize=auto;html=1;entryX=0.75;entryY=1;entryDx=0;entryDy=0;" edge="1" parent="1" source="SCm-jX3doUQlHFpAc7n2-21" target="SCm-jX3doUQlHFpAc7n2-3">
          <mxGeometry relative="1" as="geometry" />
        </mxCell>
        <mxCell id="SCm-jX3doUQlHFpAc7n2-21" value="Ultrasonic Sensor" style="rounded=0;whiteSpace=wrap;html=1;" vertex="1" parent="1">
          <mxGeometry x="425" y="590" width="80" height="40" as="geometry" />
        </mxCell>
        <mxCell id="SCm-jX3doUQlHFpAc7n2-22" value="OLED screen" style="rounded=0;whiteSpace=wrap;html=1;" vertex="1" parent="1">
          <mxGeometry x="420" y="100" width="80" height="40" as="geometry" />
        </mxCell>
        <mxCell id="SCm-jX3doUQlHFpAc7n2-26" style="edgeStyle=orthogonalEdgeStyle;rounded=0;orthogonalLoop=1;jettySize=auto;html=1;exitX=1;exitY=0.5;exitDx=0;exitDy=0;entryX=0.5;entryY=1;entryDx=0;entryDy=0;" edge="1" parent="1" source="SCm-jX3doUQlHFpAc7n2-23" target="SCm-jX3doUQlHFpAc7n2-6">
          <mxGeometry relative="1" as="geometry" />
        </mxCell>
        <mxCell id="SCm-jX3doUQlHFpAc7n2-23" value="Pressure Sensor" style="rounded=0;whiteSpace=wrap;html=1;" vertex="1" parent="1">
          <mxGeometry x="160" y="420" width="80" height="40" as="geometry" />
        </mxCell>
        <mxCell id="SCm-jX3doUQlHFpAc7n2-34" value="" style="endArrow=classic;startArrow=classic;html=1;rounded=0;entryX=0;entryY=0.5;entryDx=0;entryDy=0;exitX=0.875;exitY=0.5;exitDx=0;exitDy=0;exitPerimeter=0;" edge="1" parent="1" source="SCm-jX3doUQlHFpAc7n2-1" target="SCm-jX3doUQlHFpAc7n2-5">
          <mxGeometry width="50" height="50" relative="1" as="geometry">
            <mxPoint x="300" y="380" as="sourcePoint" />
            <mxPoint x="350" y="330" as="targetPoint" />
          </mxGeometry>
        </mxCell>
        <mxCell id="SCm-jX3doUQlHFpAc7n2-35" value="" style="endArrow=classic;startArrow=classic;html=1;rounded=0;entryX=0.5;entryY=1;entryDx=0;entryDy=0;exitX=0.488;exitY=0.15;exitDx=0;exitDy=0;exitPerimeter=0;" edge="1" parent="1" source="SCm-jX3doUQlHFpAc7n2-1" target="SCm-jX3doUQlHFpAc7n2-4">
          <mxGeometry width="50" height="50" relative="1" as="geometry">
            <mxPoint x="300" y="380" as="sourcePoint" />
            <mxPoint x="350" y="330" as="targetPoint" />
          </mxGeometry>
        </mxCell>
        <mxCell id="SCm-jX3doUQlHFpAc7n2-36" value="" style="endArrow=classic;startArrow=classic;html=1;rounded=0;exitX=1;exitY=0.5;exitDx=0;exitDy=0;" edge="1" parent="1" source="SCm-jX3doUQlHFpAc7n2-6">
          <mxGeometry width="50" height="50" relative="1" as="geometry">
            <mxPoint x="300" y="380" as="sourcePoint" />
            <mxPoint x="370" y="360" as="targetPoint" />
          </mxGeometry>
        </mxCell>
        <mxCell id="SCm-jX3doUQlHFpAc7n2-37" value="" style="endArrow=classic;startArrow=classic;html=1;rounded=0;exitX=0.5;exitY=0;exitDx=0;exitDy=0;" edge="1" parent="1" source="SCm-jX3doUQlHFpAc7n2-3">
          <mxGeometry width="50" height="50" relative="1" as="geometry">
            <mxPoint x="300" y="380" as="sourcePoint" />
            <mxPoint x="400" y="390" as="targetPoint" />
          </mxGeometry>
        </mxCell>
        <mxCell id="SCm-jX3doUQlHFpAc7n2-48" value="https request" style="text;html=1;align=center;verticalAlign=middle;whiteSpace=wrap;rounded=0;" vertex="1" parent="1">
          <mxGeometry x="400" y="390" width="60" height="30" as="geometry" />
        </mxCell>
        <mxCell id="SCm-jX3doUQlHFpAc7n2-52" value="Armband" style="swimlane;whiteSpace=wrap;html=1;" vertex="1" parent="1">
          <mxGeometry x="220" y="20" width="360" height="230" as="geometry">
            <mxRectangle x="220" y="20" width="90" height="30" as="alternateBounds" />
          </mxGeometry>
        </mxCell>
        <mxCell id="SCm-jX3doUQlHFpAc7n2-53" value="Smart Ball 1" style="swimlane;horizontal=0;whiteSpace=wrap;html=1;" vertex="1" parent="1">
          <mxGeometry x="80" y="250" width="260" height="220" as="geometry" />
        </mxCell>
        <mxCell id="SCm-jX3doUQlHFpAc7n2-54" value="Smart Ball 2" style="swimlane;horizontal=0;whiteSpace=wrap;html=1;rotation=-180;" vertex="1" parent="1">
          <mxGeometry x="460" y="250" width="260" height="220" as="geometry" />
        </mxCell>
        <mxCell id="SCm-jX3doUQlHFpAc7n2-9" value="MicroSD Card &amp;amp; module" style="rounded=0;whiteSpace=wrap;html=1;" vertex="1" parent="SCm-jX3doUQlHFpAc7n2-54">
          <mxGeometry x="140" y="110" width="80" height="40" as="geometry" />
        </mxCell>
        <mxCell id="SCm-jX3doUQlHFpAc7n2-15" value="Pressure Sensor" style="rounded=0;whiteSpace=wrap;html=1;" vertex="1" parent="SCm-jX3doUQlHFpAc7n2-54">
          <mxGeometry x="100" y="160" width="80" height="40" as="geometry" />
        </mxCell>
        <mxCell id="SCm-jX3doUQlHFpAc7n2-55" value="Trolley" style="swimlane;whiteSpace=wrap;html=1;" vertex="1" parent="1">
          <mxGeometry x="230" y="470" width="330" height="180" as="geometry" />
        </mxCell>
      </root>
    </mxGraphModel>
  </diagram>
</mxfile>
